<?xml version="1.0" encoding="UTF-8"?>
<svg width="100pt" height="100pt" version="1.1" viewBox="0 0 100 100" xmlns="http://www.w3.org/2000/svg">
 <g>
  <path d="m50.914 75.156c0.59766-0.29688 1.1992-0.58203 1.8086-0.86719-0.46094-0.6875-0.98047-1.3359-1.5508-1.9336 0.058594 0.94141-0.027344 1.8867-0.25781 2.8008z"/>
  <path d="m51.68 77.836c0.42969 0.035156 0.85547 0.12891 1.2617 0.27344 0.13672 0.046875 0.28125 0.097656 0.42969 0.14062-0.14062-0.30469-0.29688-0.60156-0.46875-0.88672-0.007813-0.011719-0.015625-0.023437-0.023438-0.039062-0.29297-0.47656-0.60938-0.94922-0.88672-1.4375-0.45703 0.21875-0.90234 0.45312-1.3359 0.70312 0.39062 0.37109 0.73438 0.79297 1.0234 1.2461z"/>
  <path d="m19.621 83.93c4.8125-1.2539 9.5664-2.8828 14.383-4.0859v0.003906c-2.1445 0.11719-4.293 0.054688-6.4258-0.1875-0.20703-0.015625-0.39844-0.13281-0.50391-0.3125h-0.09375c-0.027344 0-0.046875-0.011718-0.078125-0.011718-1.4102 1.0742-2.8711 2.0703-4.3828 2.9883-0.97266 0.53516-1.9492 1.0469-2.8984 1.6055z"/>
  <path d="m51.188 68.895c-4.2969 3.0703-8.2812 6.5234-12.254 10v0.9375c1.7266-1.5195 3.3477-3.1562 5.0898-4.668h-0.003907c1.875-1.5586 3.8945-2.9336 6.0312-4.1094 0.011719-0.011719 0.027344-0.011719 0.039063-0.019532v-0.003906c0.11719-0.10938 0.26953-0.17188 0.42969-0.17969 0.16797-0.12891 0.40625-0.13281 0.57812-0.003906 0.28516 0.19141 0.55469 0.40625 0.80078 0.64453 0.097656-0.26563 0.21094-0.52344 0.33594-0.78125-0.11328-0.097657-0.19531-0.22656-0.23828-0.37109-0.16016-0.53516-0.4375-1.0273-0.80859-1.4453z"/>
  <path d="m50.758 67.223c0.24609-0.21094 0.60547-0.23047 0.875-0.050781h0.007813c0.070313-1.168-0.058594-2.3438-0.078125-3.5195-0.039062-0.019532-0.082031-0.03125-0.125-0.042969-0.074219 0.011719-0.15234 0.011719-0.22656-0.003906-1.1055-0.23047-2.2266-0.34766-3.3516-0.34766-0.11328 0.042969-0.23828 0.046876-0.34766 0.003907-0.60547 0.003906-1.2109 0.042969-1.8086 0.11328-2.1875 1.5469-4.1992 3.3906-6.4219 4.8789 0 0.015625 0 0.03125-0.007812 0.046875 0.011718 0.035157 0.019531 0.066407 0.023437 0.097657 0.03125 0.91797 0.039063 2.8047 0.039063 2.8047-0.003907 0.14453-0.09375 0.27344-0.23047 0.32422l-0.011719 0.011718c-0.125 0.125-0.25391 0.23438-0.38672 0.35156 0 0.03125 0.015625 0.058594 0.011719 0.09375-0.054688 0.98438 0.058594 1.9648 0.070312 2.957h0.003907c0.007812 0.19531-0.097657 0.375-0.27344 0.46875-1.1758 1.0469-2.4414 1.9844-3.7891 2.7969 0.86719-0.03125 1.7383-0.066406 2.6055-0.078125 4.2383-3.832 8.6641-7.4414 13.27-10.82 0.046875-0.035156 0.097656-0.0625 0.15234-0.085938z"/>
  <path d="m50.277 86.207c4.4609-2 8.9102-4.0156 13.348-6.0508 6.1602-2.8125 12.289-6.0742 18.617-8.5352-2.0195-1.0117-4.0508-2.0039-6.0391-3.0781-0.011719 0.003906-0.015625 0.003906-0.027344 0.011719v-0.003907c-0.046875 0.035157-0.097656 0.0625-0.15234 0.078125-7.4102 2.5508-14.574 5.8047-21.883 8.6367 0.22656 0.39844 0.41016 0.81641 0.54688 1.2539 0.003906 0.011719 0.007812 0.027344 0.011719 0.039063 0.13281 0.13672 0.18359 0.33203 0.125 0.51562-0.054688 0.18359-0.21094 0.32031-0.39844 0.35156-0.015625 0-0.035156 0.003907-0.054687 0.007813-0.027344 0.042968-0.0625 0.082031-0.10156 0.11719-3.5508 3.0898-7.1328 6.1484-10.746 9.1758 0.023437 0.13672 0.058593 0.27344 0.10937 0.40234 2.2578-0.58594 4.5703-1.9922 6.6445-2.9219z"/>
  <path d="m52.848 79.273c-0.32422-0.12109-0.66016-0.21094-1.0039-0.27344-0.023438 0.10547-0.078125 0.20312-0.15234 0.28125-2.8828 3.0195-6.1914 5.5664-9.3594 8.2812 0.14062 0.10547 0.26953 0.22656 0.39062 0.35156 3.4023-2.8477 6.7773-5.7305 10.125-8.6406z"/>
  <path d="m50.789 78.57c-0.30078-0.5-0.66797-0.95703-1.0938-1.3555-1.6172 1.6797-3.6211 2.957-5.3242 4.5508-1.4219 1.3359-3.6328 2.6562-4.9141 4.2461v0.003906c0.47656 0.46484 1.0273 0.84375 1.6289 1.125 3.2617-2.8359 6.707-5.4531 9.7031-8.5703z"/>
  <path d="m43.566 80.961c1.7773-1.7344 3.9531-3.0195 5.625-4.8633 0.070313-0.085937 0.16797-0.14453 0.27344-0.16797 0.45312-1.125 0.64844-2.332 0.57031-3.543-2.082 1.168-4.0352 2.5508-5.8203 4.1328-1.75 1.6172-3.4492 3.2852-5.2812 4.8203v2.3555c0 0.078126-0.027344 0.15625-0.078125 0.21484 0.058593 0.28906 0.12891 0.57422 0.20703 0.85938 1.3398-1.3945 3.1719-2.5039 4.5039-3.8086z"/>
  <path d="m35.551 89.723c0.011719 0.003906 0.011719 0.011719 0.023438 0.015625 0.76953-0.36328 1.582-0.62109 2.4219-0.76562 0.91406-0.19922 1.8047-0.47656 2.6953-0.76172-0.60547-0.25781-1.1641-0.61719-1.6523-1.0586-0.050781 0.035156-0.10547 0.0625-0.16406 0.082031-1.8672 0.64062-3.7266 1.2969-5.6016 1.918h0.003906c0.78516 0.046875 1.5586 0.23828 2.2734 0.57031z"/>
  <path d="m33.914 72.055c-0.53906 0.71094-1.1133 1.3945-1.6914 2.082-0.52344 0.875-1.1211 1.707-1.7773 2.4883-0.5 0.49609-0.97656 1.0234-1.4258 1.5703 0.085938 0.011719 0.16797 0.015626 0.25 0.023438 2.8203-2.6172 6.1562-4.6953 8.9258-7.3945 0-0.76562-0.003906-1.4023-0.027343-2.0742-0.74609-0.078125-1.5039-0.03125-2.2539-0.058594l-0.003906-0.003906c-0.55859 1.1836-1.2266 2.3125-1.9961 3.3672z"/>
  <path d="m53.789 36.965c-1.6719 3.707-3.8516 7.1562-5.8789 10.695-0.054687 0.10547-0.14453 0.1875-0.25391 0.23438-0.007812 0.011719-0.011719 0.023438-0.015625 0.039063-2.9297 5.1758-6.0156 10.254-8.8398 15.496 0.37891-0.042969 0.76172-0.078126 1.1406-0.125 0.011719-0.046876 0.035156-0.089844 0.058594-0.12891 2.6562-4.2383 5.4844-8.3555 8.4844-12.359h0.003906c0.023438-0.035156 0.054688-0.070312 0.089844-0.097656 0.046875-0.10938 0.13672-0.19922 0.25-0.24219 0.64844-0.25 1.3086-0.46484 1.9766-0.63672 1.8633-3.6016 2.7344-7.6484 4.543-11.238-0.59766-0.46875-1.125-1.0195-1.5586-1.6367z"/>
  <path d="m37.844 80.16c-6.8164 1.3203-13.449 3.8789-20.242 5.4375-0.125 1.1562-0.51172 2.2695-0.65625 3.418 7.0312-1.6836 13.973-3.6836 20.883-5.8008h0.015625v-1.8086c-0.15625-0.17578-0.15625-0.44141 0-0.62109z"/>
  <path d="m41.453 65.234c1.2344-0.97656 2.4453-1.9766 3.7109-2.875 0.097657-0.078125 0.22656-0.11328 0.35156-0.097656 0.011719-0.003907 0.023437-0.011719 0.039063-0.015625 0.56641-0.066406 1.1367-0.10156 1.707-0.12109 1.3633-3.1875 2.2422-7.0117 4.3633-9.7891-0.14062-0.47266-0.26172-0.95703-0.38672-1.4414l-0.003906 0.003907c-0.60938 0.14844-1.2109 0.33203-1.8008 0.55469-2.8633 3.7969-5.5469 7.7188-8.082 11.734h-0.003906c0.26562 0.13281 0.39453 0.4375 0.3125 0.72266-0.097656 0.43359-0.16797 0.87891-0.20703 1.3242z"/>
  <path d="m87.059 72.828c0.33203-2.7148 2.1797-4.9375 2.8516-7.582-0.5-1.5273-2.3359-2.3438-3.6562-3.043-1.5391-0.80859-3.0469-1.6445-4.5078-2.5781-2.1602 2.3047-3.125 5.3789-4.7695 8.0352 3.332 1.7891 6.7734 3.3555 10.082 5.168z"/>
  <path d="m31.613 66.172c-0.61719 0.91406-1.5 1.6094-2.1172 2.5195-0.007813 2.4297-0.14844 4.8555-0.42578 7.2656 0.56641-0.69531 1.1562-1.3672 1.7422-2.0469l0.42578-0.65234c0.085938-0.13281 0.21484-0.23437 0.36719-0.27734 0.60938-0.72266 1.1641-1.4922 1.6641-2.2969 0.09375-0.14844 0.17578-0.30078 0.26562-0.45312-0.41406-1.3945-0.62891-2.8398-0.96875-4.2539-0.31641 0.054688-0.63672 0.11719-0.95312 0.19531z"/>
  <path d="m26.559 76.352c0.36328 0.18359 0.72266 0.37891 1.0742 0.57031 0.054688-0.007813 0.10938-0.015625 0.16406-0.015625 0.36328-2.668 0.54688-5.3555 0.55469-8.0508-0.023437-0.039063-0.042968-0.078125-0.066406-0.125-0.26953-0.59375-0.47656-1.2109-0.62109-1.8477-0.30859-0.097656-0.62891-0.16797-0.95312-0.21094-0.078126 3.1992-0.14844 6.4219-0.15234 9.6797z"/>
  <path d="m30.953 78.285c0.53125 0.003906 1.0664 0.003906 1.5977-0.003906h-0.003906c1.7852-1.0781 3.4844-2.2891 5.0898-3.6172-0.015625-0.58594-0.054688-1.1719-0.066407-1.7539-1.0703 0.89844-2.1719 1.75-3.2031 2.6875-1.0742 0.98438-2.2852 1.7891-3.4141 2.6875z"/>
  <path d="m52.73 72.426c0.38672 0.48828 0.75 1.0039 1.1367 1.5h-0.003907c0.078125 0.089844 0.125 0.20312 0.13281 0.32422 0.097656 0.12109 0.13672 0.28125 0.10156 0.42969-0.035156 0.15234-0.14062 0.27734-0.28125 0.34375-0.26172 0.12891-0.52344 0.25391-0.78906 0.37891 0.16797 0.29297 0.34766 0.58203 0.53125 0.875 7.3984-2.8516 14.645-6.1602 22.148-8.7383 1.5859-2.3906 2.5312-5.1562 4.1992-7.4688-8.9727 3.3906-17.672 7.4219-26.57 11.008-0.23047 0.4375-0.43359 0.88672-0.60547 1.3477z"/>
  <path d="m37.77 65.004c-0.46875 0.83203-0.88672 1.6875-1.3047 2.5586 0.57422 0.003906 1.1523-0.003906 1.7188 0.042969 0.65625-0.41797 1.2969-0.86719 1.9297-1.3398-0.054687-0.125-0.070312-0.26172-0.050781-0.39844 0.078125-0.42969 0.11328-0.86328 0.16797-1.2969-0.79688 0.035157-1.5859 0.17188-2.3516 0.40234-0.035156 0.015625-0.070312 0.027344-0.10938 0.03125z"/>
  <path d="m26.875 56.055c0.003906 3.168-0.066406 6.3164-0.13672 9.4805v-0.003906c0.50391 0.066406 1 0.17188 1.4844 0.32031 0.050782 0.019532 0.09375 0.042969 0.13672 0.070313 0.25391 0.042969 0.43359 0.26953 0.41797 0.52734 0.003906 0.35938 0.078125 0.71094 0.22266 1.0391 0.62109-0.63281 1.1953-1.3125 1.7188-2.0273-0.77734-3.0195-1.9453-6.1641-2.1406-9.3047-0.55859-0.13281-1.1328-0.16797-1.7031-0.10156z"/>
  <path d="m34.754 90.66c-0.003906-0.015625-0.003906-0.03125-0.011718-0.046875-1.1211-0.37109-2.3125-0.47266-3.4805-0.28906-1.1406 0.13672-1.3047 1.0117-1.6133 1.9023 0.47266 0.32422 0.94531 0.65625 1.4219 0.98438v-0.003907c0.375 0.035157 0.75391 0.019531 1.125-0.042969 0.027344-0.007812 0.058594-0.011718 0.085938-0.015624 0.003906 0 0.011719-0.003907 0.015625-0.003907h0.003906c0.74609-0.89453 1.5664-1.7266 2.4531-2.4844z"/>
  <path d="m33.43 93.547c0.77734 0.67578 1.6484 1.2383 2.5859 1.668l0.003906 0.003906c0.19141-0.023438 0.39062-0.054688 0.59375-0.097656-0.30078-1.1758-0.76953-2.3008-1.3984-3.3359-0.63672 0.54297-1.2344 1.1289-1.7852 1.7617z"/>
  <path d="m16.406 90.418c-0.042969 0.03125-0.085938 0.054687-0.13672 0.078125-1.1016 0.51562-2.2734 0.86719-3.4766 1.043-0.14453 0.015626-0.28906-0.03125-0.39453-0.13281-0.10938-0.10156-0.16406-0.24609-0.15234-0.39062-0.035156-0.050781-0.058594-0.10938-0.070313-0.17188-0.22266-1.1406-0.49609-2.2656-0.66797-3.4062-0.61328 0.82422-1.082 1.7461-1.3906 2.7266-0.011719 0.03125-0.027344 0.058594-0.039063 0.09375 0.039063 1.2617 0.96875 2.3047 1.7422 3.2812 2.543-1.2656 5.3906-1.457 8.1367-2.0352l0.003907-0.003906c0.14453-0.10547 0.32031-0.14844 0.5-0.12891 0.12891-0.73438 0.30469-1.4609 0.52734-2.1758-1.4062 0.35938-2.8164 0.70703-4.2266 1.043-0.09375 0.10156-0.21875 0.16406-0.35547 0.17969z"/>
  <path d="m37.949 86.348c0-0.10156 0.027343-0.20312 0.078125-0.29297 0.042968-0.066407 0.097656-0.12891 0.14844-0.19531-0.12891-0.48438-0.27344-0.95703-0.37891-1.4414-5.1445 1.5742-10.305 3.0781-15.508 4.4375l-0.003906 0.003906c-0.26562 0.78516-0.48828 1.5859-0.66406 2.3984 2.7969-0.90625 5.7031-1.3945 8.5-2.3125 2.625-0.85547 5.2266-1.7188 7.8281-2.5977z"/>
  <path d="m79.336 76.582c2.1875-0.94922 4.4492-2.168 6.75-2.9766-0.82031-0.44531-1.6484-0.87891-2.4805-1.2969-6.957 2.5898-13.672 6.2148-20.426 9.2969-4.4961 2.0469-8.9883 4.1016-13.504 6.1133-1.9531 0.86719-4.1328 2.2109-6.25 2.6406v-0.003906c-0.15234 0.03125-0.31641 0-0.44531-0.089844-0.13281-0.085937-0.22266-0.22266-0.25-0.37891-0.027344-0.042969-0.054688-0.089844-0.078125-0.13672-0.066406-0.16797-0.125-0.33594-0.17188-0.50391-0.12891-0.046875-0.23828-0.12891-0.3125-0.24219-0.019531-0.015625-0.03125-0.03125-0.042969-0.050781-1.1562 0.35938-2.3086 0.77734-3.4883 1.043-0.91016 0.11719-1.7969 0.37891-2.6289 0.76953 0.50391 1.3945 1.4141 2.6094 1.707 4.0586 2.457-0.77734 5.3828-2.4023 7.5078-3.3086 5.6992-2.4336 11.371-4.9258 17.039-7.4219 5.6953-2.5039 11.375-5.0312 17.074-7.5117z"/>
  <path d="m24.609 93.41c1.3477-0.3125 2.5625-1.0234 3.9062-1.375 0.26562-0.60156 0.42969-1.1719 0.67188-1.6445-2.1992 0.58984-4.4219 1.082-6.5938 1.7539 0.67578 0.39453 1.3242 0.875 2.0156 1.2656z"/>
  <path d="m84.082 84.676c0.29688 0.36719 0.55859 0.76172 0.78125 1.1797 0.21875-0.28906 0.43359-0.57422 0.66406-0.85156 0.84375-1.0273 1.6836-2.0586 2.5312-3.0742-1.4805 0.63281-3.2422 1.3594-3.9766 2.7461z"/>
  <path d="m86.836 78.652c-1.2383-0.59375-2.4648-1.1992-3.7031-1.7891-0.074218-0.035156-0.14062-0.082031-0.19922-0.13672v3.7422c-0.097656 1.1602-0.035156 2.3281 0.18359 3.4727 0.027343 0.011719 0.054687 0.027344 0.078124 0.039063 1.0469-1.6953 3.1094-2.4844 4.8828-3.2969v-0.003906c-0.46094-0.63672-0.875-1.3047-1.2383-2.0039 0-0.007812 0-0.015625-0.003906-0.023437z"/>
  <path d="m81.844 77.172c-0.97266 0.46094-1.9375 0.92188-2.8828 1.3398-5.8164 2.543-11.621 5.1172-17.434 7.6719-1.7695 0.78125-3.543 1.5586-5.3125 2.3359 8.6445-1.2773 17.297-2.2812 25.879-4.0898-0.27344-1.1094-0.35547-2.2617-0.25-3.3984z"/>
  <path d="m83.219 85.359c-10.305 2.2422-20.691 3.25-31.07 4.9414l-4.2266 1.8242c6.0938 0.097656 12.293 0.15625 18.316-0.89062 2.9531-0.51562 5.832-1.4336 8.8047-1.8594 2.6133-0.375 5.2344-0.65234 7.8047-1.2383l0.003906 0.003906c0.03125-0.007813 0.0625-0.011719 0.097657-0.011719 0.4375-0.40625 0.83984-0.85156 1.2031-1.3281-0.058594-0.042969-0.11328-0.10156-0.15234-0.16797-0.21875-0.44922-0.48047-0.875-0.78125-1.2734z"/>
  <path d="m34.07 65.77c0.007813 0.19531-0.097656 0.37891-0.26562 0.46875 0.18359 0.84375 0.34375 1.6875 0.53125 2.5312 0.74609-1.4219 1.4336-2.8789 2.2227-4.2812v0.003907c-0.050782-0.10938-0.078125-0.23047-0.074219-0.35156 0.11328-12.992 2.7344-25.926 2.9102-38.926-2.2656 0.41406-4.4883 0.98438-6.7305 1.5 0.32422 13.02 1.3359 26.035 1.4062 39.055z"/>
  <path d="m38.816 51.855c-0.32031 3.4531-0.57031 6.9141-0.66406 10.371 2.6953-4.9648 5.625-9.793 8.4102-14.711v-0.003906c-0.015625-0.066407-0.023438-0.14062-0.027344-0.21094v-3.8086c-0.62891-0.042969-1.2695 0.027343-1.9023 0.03125-0.015624 0-0.027343-0.003907-0.042968-0.003907-0.015625 0.027344-0.039063 0.054688-0.058594 0.085938-1.875 2.7695-3.8477 5.4766-5.7109 8.2461z"/>
  <path d="m56.266 39.32c-0.875 1.8477-1.2969 3.875-2.1406 5.7383-0.71094 1.582-1.2969 3.2031-2.043 4.7578 0.042969 0.054688 0.078125 0.11719 0.097657 0.18359 0.19531 0.67188 0.34375 1.3633 0.54687 2.0352v0.003906c0.027344 0.078126 0.035157 0.16016 0.023438 0.24219 0.074219 0.19922 0.035156 0.42188-0.10547 0.58203-1.3281 1.6172-1.9102 3.625-2.5898 5.5664-0.44531 1.2656-0.99219 2.4844-1.543 3.6992 0.51172 0.023438 1.0195 0.066406 1.5312 0.125 0.003906-0.003906 0.003906-0.015625 0.011719-0.027344v0.003907c0.015624-0.066407 0.035156-0.13281 0.058593-0.19531 1.582-3.7422 3.2305-7.4688 4.4648-11.344 1.0391-3.2695 2.5625-6.4062 3.5312-9.6875-0.54688-0.62891-1.168-1.1914-1.8438-1.6836z"/>
  <path d="m47.434 42.473c0.20703 0.050782 0.36719 0.22266 0.40625 0.43359 0.039062 0.21094-0.046875 0.42578-0.22266 0.55078 0 0.015625 0.003906 0.027344 0.003906 0.042969v2.3867c2.3672-4.0586 4.8438-8.0547 6.3672-12.527-1.0156 0.30469-2.0312 0.63672-3.0273 1-1.5625 2.8906-3.6562 5.3672-5.5625 8.0078l0.003906-0.003907c0.67578-0.046875 1.3594-0.011719 2.0312 0.10938z"/>
  <path d="m15.762 89.477c0.078125-1.3477 0.58203-2.6172 0.71094-3.9609h0.003906c-1.1211-0.48828-2.1953-1.0781-3.2031-1.7695-0.09375 0.375-0.19531 0.74219-0.27734 1.125 0.027344 0.18359-0.011719 0.37109-0.10938 0.52734-0.125 0.19922-0.25391 0.40234-0.39062 0.60156 0.14453 1.457 0.39062 2.9062 0.73828 4.3281 0.87109-0.19141 1.7188-0.47656 2.5273-0.85156z"/>
  <path d="m57.945 39.297c-0.60156-2.1328-1.5195-4.1641-2.7188-6.0234-0.26172 0.80859-0.56641 1.5977-0.88672 2.375 0.003906 0.011718 0.015625 0.015624 0.023437 0.027343 0.75 1.6133 2.2656 2.5156 3.582 3.6211z"/>
  <path d="m21.945 81.344c1.6289-0.92969 3.0742-2.1016 4.6289-3.1445-1.2031-0.71484-2.5039-1.2539-3.8594-1.6016-2.7109 2.4609-6.2266 3.7305-9 6.082 0.98047 0.68359 2.0195 1.2695 3.1094 1.75 1.6367-1.1367 3.3477-2.168 5.1211-3.0859z"/>
  <path d="m22.395 75.016c0.14453-0.058594 0.30469-0.074219 0.45703-0.046875 0.16406 0.027344 0.32031 0.066406 0.47656 0.097656-0.023437-5.9062 0.078125-11.816 0.09375-17.727-0.52344-0.72266-1.1328-1.3828-1.8086-1.9727-0.023437-0.007813-0.046875-0.023438-0.066406-0.042969-0.003906 0-0.003906 0-0.011719-0.003907-0.058594-0.015624-0.125-0.039062-0.19141-0.054687h0.003906c-0.019531-0.003906-0.042968-0.007813-0.066406-0.011719-0.015625 0-0.03125 0-0.046875-0.003906h-0.039063c-0.25 0.13672-0.48828 0.28125-0.72656 0.43359 0.015625 6.5664 0.87891 12.891 1.6133 19.375 0.10156-0.035156 0.20703-0.050782 0.3125-0.042969z"/>
  <path d="m32.422 20.305c0.10547 0.097656 0.16016 0.23828 0.15625 0.37891 0.003906 1.625 0.039063 3.2422 0.070313 4.8672 2.082-0.48828 4.1562-1.0117 6.2578-1.3945-1.9883-3.1523-3.1445-6.7266-5.1094-9.8906-1.8477-2.9688-3.8633-6.582-6.4062-9.1094 0.8125 5.293 4.082 9.8242 5.0312 15.105v0.042969z"/>
  <path d="m24.473 56.875c0.058594 0.085938 0.09375 0.19141 0.089844 0.29688-0.003906 6.0781-0.12109 12.156-0.09375 18.234 0.32031 0.11328 0.63672 0.24609 0.94922 0.38672 0.023437-6.7695 0.33203-13.402 0.3125-20.07h0.003906c-0.007813-0.15625 0.058594-0.30859 0.17969-0.40625 0.054688-0.17188 0.19922-0.29688 0.375-0.32812 0.95703-0.17969 1.9453-0.13281 2.8828 0.13672 0.011719 0.003906 0.019531 0.015625 0.03125 0.023438h0.003906c0.26953 0.027343 0.47656 0.25781 0.47656 0.53125 0.085937 3.1172 1.2891 6.2812 2.082 9.2969 0.36328-0.078124 0.72266-0.14062 1.0859-0.20703 0.019532 0.003907 0.042969 0.003907 0.0625 0-0.12891-14.656-1.3945-29.301-1.4766-43.953v0.003906c-0.058594-0.074218-0.097656-0.16016-0.11328-0.25-0.88672-4.9219-3.7109-9.1953-4.8164-14.027-0.51172 3.3203-1.4336 6.5664-1.9141 9.8984-0.60938 4.3945-0.95703 8.8242-1.043 13.266-0.19922 8.3594 0.054688 16.727-0.50391 25.07v-0.003906c-0.007813 0.10156-0.03125 0.19922-0.070313 0.28906 0.48438 0.51172 0.89453 1.0938 1.3789 1.6172 0.050781 0.054687 0.09375 0.12109 0.11719 0.19531z"/>
 </g>
</svg>
